<svg width="82" height="23" viewBox="0 0 82 23" fill="none" xmlns="http://www.w3.org/2000/svg">
  <path
    d="M25.7647 22.4V0H39.3327V2.432H28.2607V19.968H39.2687V22.4H25.7647ZM26.9167 12.096V9.664H37.5407V12.096H26.9167Z"
    fill="#046040" />
  <path d="M44.921 22.4V0H47.417V19.968H58.169V22.4H44.921Z" fill="#046040" />
  <path
    d="M63.046 22.4V0H71.494C73.03 0 74.4273 0.277334 75.686 0.832001C76.966 1.36533 78.0753 2.13333 79.014 3.136C79.9527 4.13867 80.678 5.32267 81.19 6.688C81.702 8.05333 81.958 9.55733 81.958 11.2C81.958 12.8427 81.702 14.3573 81.19 15.744C80.678 17.1093 79.9527 18.2933 79.014 19.296C78.0967 20.2773 76.998 21.0453 75.718 21.6C74.438 22.1333 73.03 22.4 71.494 22.4H63.046ZM65.542 20.416L65.254 19.968H71.334C72.5073 19.968 73.5847 19.7653 74.566 19.36C75.5687 18.9333 76.422 18.336 77.126 17.568C77.8513 16.7787 78.406 15.8507 78.79 14.784C79.1953 13.7173 79.398 12.5227 79.398 11.2C79.398 9.87733 79.1953 8.68267 78.79 7.616C78.406 6.54933 77.8513 5.632 77.126 4.864C76.4007 4.07467 75.5473 3.47733 74.566 3.072C73.5847 2.64533 72.5073 2.432 71.334 2.432H65.158L65.542 2.048V20.416Z"
    fill="#046040" />
  <path
    d="M12.2222 22.4004V10.1782H22V22.4004H12.2222ZM0 12.6226V0.400391H9.77778V12.6226H0ZM7.33333 10.1782V2.84484H2.44444V10.1782H7.33333ZM0 22.4004V15.0671H9.77778V22.4004H0ZM2.44444 19.9559H7.33333V17.5115H2.44444V19.9559ZM14.6667 19.9559H19.5556V12.6226H14.6667V19.9559ZM12.2222 0.400391H22V7.73372H12.2222V0.400391ZM14.6667 2.84484V5.28928H19.5556V2.84484H14.6667Z"
    fill="#1BAAAF" />
</svg>