<svg width="12" height="12" viewBox="0 0 12 12" fill="none" xmlns="http://www.w3.org/2000/svg">
<path d="M9.06536 8.47804L6.68497 10.8584C6.58087 10.9626 6.45725 11.0453 6.32119 11.1017C6.18512 11.1581 6.03927 11.1871 5.89198 11.1871C5.74468 11.1871 5.59883 11.1581 5.46276 11.1017C5.3267 11.0453 5.20308 10.9626 5.09898 10.8584L2.71803 8.47804C2.09037 7.85035 1.66294 7.05064 1.48979 6.18004C1.31663 5.30943 1.40552 4.40703 1.74523 3.58695C2.08493 2.76686 2.66018 2.06593 3.39825 1.57278C4.13631 1.07962 5.00404 0.816406 5.8917 0.816406C6.77935 0.816406 7.64708 1.07962 8.38514 1.57278C9.12321 2.06593 9.69846 2.76686 10.0382 3.58695C10.3779 4.40703 10.4668 5.30943 10.2936 6.18004C10.1204 7.05064 9.69302 7.85035 9.06536 8.47804V8.47804Z" stroke="#737373" stroke-width="1.3" stroke-linecap="round" stroke-linejoin="round"/>
<path d="M7.57474 5.30414C7.57474 5.75051 7.39742 6.1786 7.08179 6.49424C6.76616 6.80987 6.33807 6.98719 5.89169 6.98719C5.44532 6.98719 5.01723 6.80987 4.7016 6.49424C4.38597 6.1786 4.20865 5.75051 4.20865 5.30414C4.20865 4.85777 4.38597 4.42968 4.7016 4.11405C5.01723 3.79841 5.44532 3.62109 5.89169 3.62109C6.33807 3.62109 6.76616 3.79841 7.08179 4.11405C7.39742 4.42968 7.57474 4.85777 7.57474 5.30414V5.30414Z" stroke="#737373" stroke-width="1.3" stroke-linecap="round" stroke-linejoin="round"/>
</svg>
